<svg xmlns="http://www.w3.org/2000/svg" viewBox="0 0 764.7 763.99"><defs><style>.cls-1,.cls-2,.cls-3,.cls-4{fill:none;stroke:#f9bf59;stroke-miterlimit:10;stroke-width:3px;}.cls-2{stroke-dasharray:12.94 12.94;}.cls-3{stroke-dasharray:11.92 11.92;}.cls-4{stroke-dasharray:12.03 12.03;}.cls-5{fill:#f9bf59;}</style></defs><title>nosearch</title><g id="Layer_2" data-name="Layer 2"><g id="Layer_1-2" data-name="Layer 1"><path class="cls-1" d="M442.26,423.56q-.94,2.83-1.9,5.69l-5.94-.87"/><path class="cls-2" d="M421.63,426.5l-44.81-6.59"/><path class="cls-1" d="M370.41,419l-5.94-.88c.23-2,.51-4,.82-5.94"/><path class="cls-3" d="M367.12,400.37a55.79,55.79,0,0,0,.43-12.21c-2.73-28.8-6.9-57.45-10.51-86.16-3.93-31.29,2.15-60.57,19.87-86.6,20.11-29.52,52.46-30.63,74.91-2.87,15.71,19.43,21.24,42.92,23.2,67.23,2.19,27.29-2.33,53.76-11.18,79.6-6.56,19.15-12.94,38.37-19.69,58.55"/><path class="cls-1" d="M360.46,433.41c.73-1.86,1.46-3.72,2.16-5.6l5.94.84"/><path class="cls-4" d="M380.48,430.32c17.52,2.45,34.64,4.85,51.67,7.75,2.82.48,7.1,5.83,6.86,8.61a436.6,436.6,0,0,1-6.11,46.73c-4.17,21.31-21.33,34-42,32.49-24.85-1.84-41.89-17.38-43.35-39.57-1.12-17,4.6-32,10.66-47.33"/><path class="cls-1" d="M201.75,328.56q.94,2.83,1.91,5.69l5.93-.87"/><path class="cls-2" d="M222.39,331.5l44.81-6.59"/><path class="cls-1" d="M273.6,324l5.94-.88c-.23-2-.51-4-.82-5.94"/><path class="cls-3" d="M276.89,305.37a55.16,55.16,0,0,1-.42-12.21c2.73-28.8,6.89-57.45,10.5-86.16,3.93-31.29-2.14-60.57-19.87-86.6-20.11-29.52-52.46-30.63-74.91-2.87C176.48,137,171,160.45,169,184.76c-2.2,27.29,2.32,53.76,11.17,79.6,6.56,19.15,12.94,38.37,19.69,58.55"/><path class="cls-1" d="M283.55,338.41c-.73-1.86-1.45-3.72-2.16-5.6l-5.94.84"/><path class="cls-4" d="M263.53,335.32c-17.51,2.45-34.63,4.85-51.67,7.75-2.82.48-7.1,5.83-6.86,8.61a436.6,436.6,0,0,0,6.11,46.73c4.17,21.31,21.33,34,42,32.49,24.84-1.84,41.88-17.38,43.34-39.57,1.12-17-4.59-32-10.65-47.33"/><path class="cls-5" d="M530.91,91.09C409.46-30.36,212.54-30.36,91.09,91.09s-121.45,318.37,0,439.82c113.21,113.21,292,120.87,414.07,23L521,569.81a31.36,31.36,0,0,0,.25,44.09L662.18,754.81a31.37,31.37,0,0,0,44.35,0l49-49a31.35,31.35,0,0,0,0-44.35L614.61,520.56a31.37,31.37,0,0,0-44.36,0l-1.16,1.16L553.33,506C651.82,383.82,644.36,204.54,530.91,91.09ZM126.45,495.55c-101.93-101.92-101.93-267.18,0-369.1s267.18-101.93,369.1,0,101.93,267.18,0,369.1S228.37,597.48,126.45,495.55Z"/></g></g></svg>